<mxfile host="Electron" modified="2024-05-22T22:26:10.872Z" agent="Mozilla/5.0 (X11; Linux x86_64) AppleWebKit/537.36 (KHTML, like Gecko) draw.io/24.2.5 Chrome/120.0.6099.109 Electron/28.1.0 Safari/537.36" etag="VlrLPtFXMy7rA28j--tV" version="24.2.5" type="device">
  <diagram name="Page-1" id="qR1SaZrhwojDH0wtSFMi">
    <mxGraphModel dx="885" dy="980" grid="1" gridSize="10" guides="1" tooltips="1" connect="1" arrows="1" fold="1" page="1" pageScale="1" pageWidth="827" pageHeight="1169" math="0" shadow="0">
      <root>
        <mxCell id="0" />
        <mxCell id="1" parent="0" />
        <mxCell id="Mfz1HiDDatKlexqDO9Fz-6" value="" style="edgeStyle=orthogonalEdgeStyle;rounded=0;orthogonalLoop=1;jettySize=auto;html=1;" edge="1" parent="1" source="Mfz1HiDDatKlexqDO9Fz-2" target="Mfz1HiDDatKlexqDO9Fz-5">
          <mxGeometry relative="1" as="geometry" />
        </mxCell>
        <mxCell id="Mfz1HiDDatKlexqDO9Fz-2" value="init" style="ellipse;whiteSpace=wrap;html=1;aspect=fixed;" vertex="1" parent="1">
          <mxGeometry x="389" y="10" width="50" height="50" as="geometry" />
        </mxCell>
        <mxCell id="Mfz1HiDDatKlexqDO9Fz-3" value="user" style="shape=umlActor;verticalLabelPosition=bottom;verticalAlign=top;html=1;outlineConnect=0;" vertex="1" parent="1">
          <mxGeometry x="450" y="15" width="20" height="45" as="geometry" />
        </mxCell>
        <mxCell id="Mfz1HiDDatKlexqDO9Fz-10" value="" style="edgeStyle=orthogonalEdgeStyle;rounded=0;orthogonalLoop=1;jettySize=auto;html=1;" edge="1" parent="1" source="Mfz1HiDDatKlexqDO9Fz-5" target="Mfz1HiDDatKlexqDO9Fz-9">
          <mxGeometry relative="1" as="geometry" />
        </mxCell>
        <mxCell id="Mfz1HiDDatKlexqDO9Fz-12" value="" style="edgeStyle=orthogonalEdgeStyle;rounded=0;orthogonalLoop=1;jettySize=auto;html=1;" edge="1" parent="1" source="Mfz1HiDDatKlexqDO9Fz-5" target="Mfz1HiDDatKlexqDO9Fz-11">
          <mxGeometry relative="1" as="geometry" />
        </mxCell>
        <mxCell id="Mfz1HiDDatKlexqDO9Fz-14" value="" style="edgeStyle=orthogonalEdgeStyle;rounded=0;orthogonalLoop=1;jettySize=auto;html=1;" edge="1" parent="1" source="Mfz1HiDDatKlexqDO9Fz-5" target="Mfz1HiDDatKlexqDO9Fz-13">
          <mxGeometry relative="1" as="geometry" />
        </mxCell>
        <mxCell id="Mfz1HiDDatKlexqDO9Fz-19" value="" style="edgeStyle=orthogonalEdgeStyle;rounded=0;orthogonalLoop=1;jettySize=auto;html=1;" edge="1" parent="1" source="Mfz1HiDDatKlexqDO9Fz-5" target="Mfz1HiDDatKlexqDO9Fz-13">
          <mxGeometry relative="1" as="geometry" />
        </mxCell>
        <mxCell id="Mfz1HiDDatKlexqDO9Fz-20" value="" style="edgeStyle=orthogonalEdgeStyle;rounded=0;orthogonalLoop=1;jettySize=auto;html=1;" edge="1" parent="1" source="Mfz1HiDDatKlexqDO9Fz-5" target="Mfz1HiDDatKlexqDO9Fz-13">
          <mxGeometry relative="1" as="geometry" />
        </mxCell>
        <mxCell id="Mfz1HiDDatKlexqDO9Fz-22" value="" style="edgeStyle=orthogonalEdgeStyle;rounded=0;orthogonalLoop=1;jettySize=auto;html=1;" edge="1" parent="1" source="Mfz1HiDDatKlexqDO9Fz-5" target="Mfz1HiDDatKlexqDO9Fz-21">
          <mxGeometry relative="1" as="geometry" />
        </mxCell>
        <mxCell id="Mfz1HiDDatKlexqDO9Fz-5" value="home" style="whiteSpace=wrap;html=1;" vertex="1" parent="1">
          <mxGeometry x="361" y="100" width="106" height="30" as="geometry" />
        </mxCell>
        <mxCell id="Mfz1HiDDatKlexqDO9Fz-7" value="productos em destaque" style="shape=note2;boundedLbl=1;whiteSpace=wrap;html=1;size=25;verticalAlign=top;align=center;" vertex="1" parent="1">
          <mxGeometry x="200" y="15" width="120" height="60" as="geometry" />
        </mxCell>
        <mxCell id="Mfz1HiDDatKlexqDO9Fz-8" value="" style="endArrow=classic;html=1;rounded=0;exitX=0.471;exitY=0.999;exitDx=0;exitDy=0;exitPerimeter=0;" edge="1" parent="1" source="Mfz1HiDDatKlexqDO9Fz-7">
          <mxGeometry width="50" height="50" relative="1" as="geometry">
            <mxPoint x="310" y="160" as="sourcePoint" />
            <mxPoint x="360" y="110" as="targetPoint" />
          </mxGeometry>
        </mxCell>
        <mxCell id="Mfz1HiDDatKlexqDO9Fz-9" value="home" style="whiteSpace=wrap;html=1;" vertex="1" parent="1">
          <mxGeometry x="220" y="150" width="120" height="40" as="geometry" />
        </mxCell>
        <mxCell id="Mfz1HiDDatKlexqDO9Fz-11" value="category" style="whiteSpace=wrap;html=1;" vertex="1" parent="1">
          <mxGeometry x="354" y="150" width="120" height="40" as="geometry" />
        </mxCell>
        <mxCell id="Mfz1HiDDatKlexqDO9Fz-13" value="&lt;pre dir=&quot;ltr&quot; data-ved=&quot;2ahUKEwjZ2NPOn6KGAxVQWEEAHQjcCkAQ3ewLegQIBRAT&quot; aria-label=&quot;Texto traduzido&quot; style=&quot;text-align:left&quot; id=&quot;tw-target-text&quot; data-placeholder=&quot;Tradução&quot; class=&quot;tw-data-text tw-text-large tw-ta&quot;&gt;&lt;span lang=&quot;en&quot; class=&quot;Y2IQFc&quot;&gt;cart&lt;/span&gt;&lt;/pre&gt;" style="whiteSpace=wrap;html=1;" vertex="1" parent="1">
          <mxGeometry x="490" y="150" width="100" height="40" as="geometry" />
        </mxCell>
        <mxCell id="Mfz1HiDDatKlexqDO9Fz-29" value="" style="edgeStyle=orthogonalEdgeStyle;rounded=0;orthogonalLoop=1;jettySize=auto;html=1;" edge="1" parent="1" source="Mfz1HiDDatKlexqDO9Fz-15" target="Mfz1HiDDatKlexqDO9Fz-28">
          <mxGeometry relative="1" as="geometry" />
        </mxCell>
        <mxCell id="Mfz1HiDDatKlexqDO9Fz-15" value="perfil" style="whiteSpace=wrap;html=1;" vertex="1" parent="1">
          <mxGeometry x="727" y="150" width="100" height="40" as="geometry" />
        </mxCell>
        <mxCell id="Mfz1HiDDatKlexqDO9Fz-25" value="" style="edgeStyle=orthogonalEdgeStyle;rounded=0;orthogonalLoop=1;jettySize=auto;html=1;" edge="1" parent="1" source="Mfz1HiDDatKlexqDO9Fz-21" target="Mfz1HiDDatKlexqDO9Fz-24">
          <mxGeometry relative="1" as="geometry" />
        </mxCell>
        <mxCell id="Mfz1HiDDatKlexqDO9Fz-21" value="is&amp;nbsp;&lt;span style=&quot;text-align: left; background-color: initial;&quot;&gt;Logged&lt;/span&gt;" style="rhombus;whiteSpace=wrap;html=1;" vertex="1" parent="1">
          <mxGeometry x="610" y="75" width="80" height="80" as="geometry" />
        </mxCell>
        <mxCell id="Mfz1HiDDatKlexqDO9Fz-23" value="" style="endArrow=classic;html=1;rounded=0;exitX=0.5;exitY=1;exitDx=0;exitDy=0;" edge="1" parent="1" source="Mfz1HiDDatKlexqDO9Fz-21">
          <mxGeometry width="50" height="50" relative="1" as="geometry">
            <mxPoint x="677" y="220" as="sourcePoint" />
            <mxPoint x="727" y="170" as="targetPoint" />
            <Array as="points">
              <mxPoint x="650" y="170" />
            </Array>
          </mxGeometry>
        </mxCell>
        <mxCell id="Mfz1HiDDatKlexqDO9Fz-24" value="Login/Register" style="whiteSpace=wrap;html=1;" vertex="1" parent="1">
          <mxGeometry x="750" y="92.5" width="90" height="45" as="geometry" />
        </mxCell>
        <mxCell id="Mfz1HiDDatKlexqDO9Fz-26" value="yes" style="text;html=1;align=center;verticalAlign=middle;resizable=0;points=[];autosize=1;strokeColor=none;fillColor=none;" vertex="1" parent="1">
          <mxGeometry x="660" y="138" width="40" height="30" as="geometry" />
        </mxCell>
        <mxCell id="Mfz1HiDDatKlexqDO9Fz-27" value="no" style="text;html=1;align=center;verticalAlign=middle;resizable=0;points=[];autosize=1;strokeColor=none;fillColor=none;" vertex="1" parent="1">
          <mxGeometry x="690" y="78" width="40" height="30" as="geometry" />
        </mxCell>
        <mxCell id="Mfz1HiDDatKlexqDO9Fz-28" value="settings" style="whiteSpace=wrap;html=1;" vertex="1" parent="1">
          <mxGeometry x="660" y="240" width="90" height="40" as="geometry" />
        </mxCell>
        <mxCell id="Mfz1HiDDatKlexqDO9Fz-37" value="" style="edgeStyle=orthogonalEdgeStyle;rounded=0;orthogonalLoop=1;jettySize=auto;html=1;" edge="1" parent="1" source="Mfz1HiDDatKlexqDO9Fz-30" target="Mfz1HiDDatKlexqDO9Fz-36">
          <mxGeometry relative="1" as="geometry" />
        </mxCell>
        <mxCell id="Mfz1HiDDatKlexqDO9Fz-30" value="my orders" style="whiteSpace=wrap;html=1;" vertex="1" parent="1">
          <mxGeometry x="770" y="240" width="90" height="40" as="geometry" />
        </mxCell>
        <mxCell id="Mfz1HiDDatKlexqDO9Fz-31" value="my revies" style="whiteSpace=wrap;html=1;" vertex="1" parent="1">
          <mxGeometry x="880" y="240" width="90" height="40" as="geometry" />
        </mxCell>
        <mxCell id="Mfz1HiDDatKlexqDO9Fz-34" value="" style="endArrow=classic;html=1;rounded=0;exitX=0.5;exitY=1;exitDx=0;exitDy=0;entryX=0.5;entryY=0;entryDx=0;entryDy=0;" edge="1" parent="1" source="Mfz1HiDDatKlexqDO9Fz-15" target="Mfz1HiDDatKlexqDO9Fz-30">
          <mxGeometry width="50" height="50" relative="1" as="geometry">
            <mxPoint x="850" y="200" as="sourcePoint" />
            <mxPoint x="900" y="150" as="targetPoint" />
          </mxGeometry>
        </mxCell>
        <mxCell id="Mfz1HiDDatKlexqDO9Fz-35" value="" style="endArrow=classic;html=1;rounded=0;exitX=0.5;exitY=1;exitDx=0;exitDy=0;entryX=0.5;entryY=0;entryDx=0;entryDy=0;" edge="1" parent="1" source="Mfz1HiDDatKlexqDO9Fz-15" target="Mfz1HiDDatKlexqDO9Fz-31">
          <mxGeometry width="50" height="50" relative="1" as="geometry">
            <mxPoint x="850" y="200" as="sourcePoint" />
            <mxPoint x="900" y="150" as="targetPoint" />
          </mxGeometry>
        </mxCell>
        <mxCell id="Mfz1HiDDatKlexqDO9Fz-36" value="Order details&amp;nbsp;" style="whiteSpace=wrap;html=1;" vertex="1" parent="1">
          <mxGeometry x="767.5" y="310" width="95" height="40" as="geometry" />
        </mxCell>
        <mxCell id="Mfz1HiDDatKlexqDO9Fz-39" value="men" style="whiteSpace=wrap;html=1;" vertex="1" parent="1">
          <mxGeometry x="120" y="280" width="120" height="40" as="geometry" />
        </mxCell>
        <mxCell id="Mfz1HiDDatKlexqDO9Fz-41" value="kids" style="whiteSpace=wrap;html=1;" vertex="1" parent="1">
          <mxGeometry x="410" y="280" width="120" height="40" as="geometry" />
        </mxCell>
        <mxCell id="Mfz1HiDDatKlexqDO9Fz-42" value="women" style="whiteSpace=wrap;html=1;" vertex="1" parent="1">
          <mxGeometry x="271" y="280" width="120" height="40" as="geometry" />
        </mxCell>
        <mxCell id="Mfz1HiDDatKlexqDO9Fz-43" value="" style="endArrow=classic;html=1;rounded=0;exitX=0.5;exitY=1;exitDx=0;exitDy=0;entryX=0.5;entryY=0;entryDx=0;entryDy=0;" edge="1" parent="1" source="Mfz1HiDDatKlexqDO9Fz-11" target="Mfz1HiDDatKlexqDO9Fz-39">
          <mxGeometry width="50" height="50" relative="1" as="geometry">
            <mxPoint x="360" y="300" as="sourcePoint" />
            <mxPoint x="410" y="250" as="targetPoint" />
          </mxGeometry>
        </mxCell>
        <mxCell id="Mfz1HiDDatKlexqDO9Fz-44" value="" style="endArrow=classic;html=1;rounded=0;exitX=0.5;exitY=1;exitDx=0;exitDy=0;entryX=0.5;entryY=0;entryDx=0;entryDy=0;" edge="1" parent="1" source="Mfz1HiDDatKlexqDO9Fz-11" target="Mfz1HiDDatKlexqDO9Fz-42">
          <mxGeometry width="50" height="50" relative="1" as="geometry">
            <mxPoint x="424" y="200" as="sourcePoint" />
            <mxPoint x="280" y="290" as="targetPoint" />
          </mxGeometry>
        </mxCell>
        <mxCell id="Mfz1HiDDatKlexqDO9Fz-45" value="" style="endArrow=classic;html=1;rounded=0;exitX=0.5;exitY=1;exitDx=0;exitDy=0;entryX=0.453;entryY=-0.025;entryDx=0;entryDy=0;entryPerimeter=0;" edge="1" parent="1" source="Mfz1HiDDatKlexqDO9Fz-11" target="Mfz1HiDDatKlexqDO9Fz-41">
          <mxGeometry width="50" height="50" relative="1" as="geometry">
            <mxPoint x="424" y="200" as="sourcePoint" />
            <mxPoint x="431" y="290" as="targetPoint" />
          </mxGeometry>
        </mxCell>
        <mxCell id="Mfz1HiDDatKlexqDO9Fz-46" value="new" style="rounded=1;whiteSpace=wrap;html=1;" vertex="1" parent="1">
          <mxGeometry x="179" y="370" width="81" height="30" as="geometry" />
        </mxCell>
        <mxCell id="Mfz1HiDDatKlexqDO9Fz-48" value="clothes" style="rounded=1;whiteSpace=wrap;html=1;" vertex="1" parent="1">
          <mxGeometry x="290" y="370" width="100" height="30" as="geometry" />
        </mxCell>
        <mxCell id="Mfz1HiDDatKlexqDO9Fz-49" value="othes" style="rounded=1;whiteSpace=wrap;html=1;fillColor=#1ba1e2;fontColor=#ffffff;strokeColor=#006EAF;" vertex="1" parent="1">
          <mxGeometry x="60" y="370" width="90" height="30" as="geometry" />
        </mxCell>
        <mxCell id="Mfz1HiDDatKlexqDO9Fz-50" value="shoes" style="rounded=1;whiteSpace=wrap;html=1;" vertex="1" parent="1">
          <mxGeometry x="410" y="370" width="110" height="30" as="geometry" />
        </mxCell>
        <mxCell id="Mfz1HiDDatKlexqDO9Fz-51" value="" style="endArrow=none;html=1;rounded=0;" edge="1" parent="1">
          <mxGeometry width="50" height="50" relative="1" as="geometry">
            <mxPoint x="164" y="349.17" as="sourcePoint" />
            <mxPoint x="484" y="349.17" as="targetPoint" />
          </mxGeometry>
        </mxCell>
        <mxCell id="Mfz1HiDDatKlexqDO9Fz-52" value="" style="endArrow=classic;html=1;rounded=0;exitX=0.5;exitY=1;exitDx=0;exitDy=0;" edge="1" parent="1" source="Mfz1HiDDatKlexqDO9Fz-39">
          <mxGeometry width="50" height="50" relative="1" as="geometry">
            <mxPoint x="270" y="400" as="sourcePoint" />
            <mxPoint x="330" y="350" as="targetPoint" />
          </mxGeometry>
        </mxCell>
        <mxCell id="Mfz1HiDDatKlexqDO9Fz-53" value="" style="endArrow=classic;html=1;rounded=0;exitX=0.5;exitY=1;exitDx=0;exitDy=0;" edge="1" parent="1" source="Mfz1HiDDatKlexqDO9Fz-42">
          <mxGeometry width="50" height="50" relative="1" as="geometry">
            <mxPoint x="270" y="400" as="sourcePoint" />
            <mxPoint x="330" y="350" as="targetPoint" />
          </mxGeometry>
        </mxCell>
        <mxCell id="Mfz1HiDDatKlexqDO9Fz-54" value="" style="endArrow=classic;html=1;rounded=0;exitX=0.5;exitY=1;exitDx=0;exitDy=0;" edge="1" parent="1" source="Mfz1HiDDatKlexqDO9Fz-41">
          <mxGeometry width="50" height="50" relative="1" as="geometry">
            <mxPoint x="270" y="400" as="sourcePoint" />
            <mxPoint x="330" y="350" as="targetPoint" />
          </mxGeometry>
        </mxCell>
        <mxCell id="Mfz1HiDDatKlexqDO9Fz-55" value="" style="endArrow=classic;html=1;rounded=0;entryX=0.5;entryY=0;entryDx=0;entryDy=0;" edge="1" parent="1" target="Mfz1HiDDatKlexqDO9Fz-46">
          <mxGeometry width="50" height="50" relative="1" as="geometry">
            <mxPoint x="210" y="350" as="sourcePoint" />
            <mxPoint x="320" y="350" as="targetPoint" />
          </mxGeometry>
        </mxCell>
        <mxCell id="Mfz1HiDDatKlexqDO9Fz-56" value="" style="endArrow=classic;html=1;rounded=0;entryX=0.443;entryY=-0.125;entryDx=0;entryDy=0;entryPerimeter=0;" edge="1" parent="1" target="Mfz1HiDDatKlexqDO9Fz-48">
          <mxGeometry width="50" height="50" relative="1" as="geometry">
            <mxPoint x="330" y="350" as="sourcePoint" />
            <mxPoint x="320" y="350" as="targetPoint" />
          </mxGeometry>
        </mxCell>
        <mxCell id="Mfz1HiDDatKlexqDO9Fz-57" value="" style="endArrow=classic;html=1;rounded=0;entryX=0.5;entryY=0;entryDx=0;entryDy=0;" edge="1" parent="1" target="Mfz1HiDDatKlexqDO9Fz-50">
          <mxGeometry width="50" height="50" relative="1" as="geometry">
            <mxPoint x="450" y="350" as="sourcePoint" />
            <mxPoint x="320" y="350" as="targetPoint" />
          </mxGeometry>
        </mxCell>
        <mxCell id="Mfz1HiDDatKlexqDO9Fz-62" value="" style="edgeStyle=orthogonalEdgeStyle;rounded=0;orthogonalLoop=1;jettySize=auto;html=1;" edge="1" parent="1" source="Mfz1HiDDatKlexqDO9Fz-59" target="Mfz1HiDDatKlexqDO9Fz-61">
          <mxGeometry relative="1" as="geometry" />
        </mxCell>
        <mxCell id="Mfz1HiDDatKlexqDO9Fz-59" value="order details" style="rounded=0;whiteSpace=wrap;html=1;" vertex="1" parent="1">
          <mxGeometry x="570" y="330" width="120" height="50" as="geometry" />
        </mxCell>
        <mxCell id="Mfz1HiDDatKlexqDO9Fz-60" value="" style="endArrow=classic;html=1;rounded=0;entryX=0.5;entryY=0;entryDx=0;entryDy=0;exitX=0.5;exitY=1;exitDx=0;exitDy=0;" edge="1" parent="1" source="Mfz1HiDDatKlexqDO9Fz-13" target="Mfz1HiDDatKlexqDO9Fz-59">
          <mxGeometry width="50" height="50" relative="1" as="geometry">
            <mxPoint x="480" y="480" as="sourcePoint" />
            <mxPoint x="530" y="430" as="targetPoint" />
            <Array as="points" />
          </mxGeometry>
        </mxCell>
        <mxCell id="Mfz1HiDDatKlexqDO9Fz-64" value="" style="edgeStyle=orthogonalEdgeStyle;rounded=0;orthogonalLoop=1;jettySize=auto;html=1;entryX=1;entryY=0.5;entryDx=0;entryDy=0;" edge="1" parent="1" source="Mfz1HiDDatKlexqDO9Fz-61" target="Mfz1HiDDatKlexqDO9Fz-24">
          <mxGeometry relative="1" as="geometry">
            <mxPoint x="730" y="460" as="targetPoint" />
            <Array as="points">
              <mxPoint x="1010" y="460" />
              <mxPoint x="1010" y="115" />
            </Array>
          </mxGeometry>
        </mxCell>
        <mxCell id="Mfz1HiDDatKlexqDO9Fz-67" value="" style="edgeStyle=orthogonalEdgeStyle;rounded=0;orthogonalLoop=1;jettySize=auto;html=1;" edge="1" parent="1" source="Mfz1HiDDatKlexqDO9Fz-61" target="Mfz1HiDDatKlexqDO9Fz-66">
          <mxGeometry relative="1" as="geometry" />
        </mxCell>
        <mxCell id="Mfz1HiDDatKlexqDO9Fz-61" value="is logged" style="rhombus;whiteSpace=wrap;html=1;rounded=0;" vertex="1" parent="1">
          <mxGeometry x="590" y="420" width="80" height="80" as="geometry" />
        </mxCell>
        <mxCell id="Mfz1HiDDatKlexqDO9Fz-65" value="no" style="text;html=1;align=center;verticalAlign=middle;resizable=0;points=[];autosize=1;strokeColor=none;fillColor=none;" vertex="1" parent="1">
          <mxGeometry x="710" y="428" width="40" height="30" as="geometry" />
        </mxCell>
        <mxCell id="Mfz1HiDDatKlexqDO9Fz-73" value="" style="edgeStyle=orthogonalEdgeStyle;rounded=0;orthogonalLoop=1;jettySize=auto;html=1;" edge="1" parent="1" source="Mfz1HiDDatKlexqDO9Fz-66" target="Mfz1HiDDatKlexqDO9Fz-72">
          <mxGeometry relative="1" as="geometry" />
        </mxCell>
        <mxCell id="Mfz1HiDDatKlexqDO9Fz-66" value="payment settings" style="whiteSpace=wrap;html=1;rounded=0;" vertex="1" parent="1">
          <mxGeometry x="410" y="430" width="120" height="60" as="geometry" />
        </mxCell>
        <mxCell id="Mfz1HiDDatKlexqDO9Fz-75" value="" style="edgeStyle=orthogonalEdgeStyle;rounded=0;orthogonalLoop=1;jettySize=auto;html=1;" edge="1" parent="1" source="Mfz1HiDDatKlexqDO9Fz-72" target="Mfz1HiDDatKlexqDO9Fz-74">
          <mxGeometry relative="1" as="geometry" />
        </mxCell>
        <mxCell id="Mfz1HiDDatKlexqDO9Fz-77" value="" style="edgeStyle=orthogonalEdgeStyle;rounded=0;orthogonalLoop=1;jettySize=auto;html=1;" edge="1" parent="1" source="Mfz1HiDDatKlexqDO9Fz-72" target="Mfz1HiDDatKlexqDO9Fz-76">
          <mxGeometry relative="1" as="geometry" />
        </mxCell>
        <mxCell id="Mfz1HiDDatKlexqDO9Fz-72" value="sucess ?" style="rhombus;whiteSpace=wrap;html=1;rounded=0;" vertex="1" parent="1">
          <mxGeometry x="430" y="530" width="80" height="80" as="geometry" />
        </mxCell>
        <mxCell id="Mfz1HiDDatKlexqDO9Fz-74" value="error screen" style="whiteSpace=wrap;html=1;rounded=0;" vertex="1" parent="1">
          <mxGeometry x="269" y="540" width="120" height="60" as="geometry" />
        </mxCell>
        <mxCell id="Mfz1HiDDatKlexqDO9Fz-76" value="confirmation screen" style="whiteSpace=wrap;html=1;rounded=0;" vertex="1" parent="1">
          <mxGeometry x="540" y="540" width="120" height="60" as="geometry" />
        </mxCell>
        <mxCell id="Mfz1HiDDatKlexqDO9Fz-78" value="&lt;h1 style=&quot;margin-top: 0px;&quot;&gt;Application flow for users&lt;/h1&gt;" style="text;html=1;whiteSpace=wrap;overflow=hidden;rounded=0;" vertex="1" parent="1">
          <mxGeometry x="1120" y="30" width="180" height="120" as="geometry" />
        </mxCell>
      </root>
    </mxGraphModel>
  </diagram>
</mxfile>
